<svg id="Capa_1" data-name="Capa 1" xmlns="http://www.w3.org/2000/svg" viewBox="0 0 472.12 519.81"><defs><style>.cls-1,.cls-2{fill:#fff;}.cls-1{opacity:0.54;}</style></defs><title>vieyra</title><path class="cls-1" d="M54.73,201.34c14.69-7.25,28.24-14,41.83-20.65q26-12.76,52.12-25.39c9-4.33,6.34-5.24,13.48,2.37Q234,234.21,305.73,310.88q35.73,38.12,71.49,76.19a60.16,60.16,0,0,1,4.09,5.49l1.47-1.05c0-4.07.19-8.14,0-12.2q-2.87-51.88-5.85-103.76c-1.85-32.09-3.7-64.18-5.74-96.26-.27-4.25.69-6.57,4.9-8.31,31.07-12.91,62-26.08,93-39.15,1.35-.57,2.77-1,5.16-1.79V635.15Z" transform="translate(-54.73 -130.04)"/><path class="cls-2" d="M107.33,216.05c14.69-7.26,28.24-14,41.84-20.66,17.35-8.5,34.7-17,52.11-25.38,9-4.33,6.35-5.24,13.49,2.37q71.84,76.55,143.57,153.2,35.71,38.12,71.48,76.2a57.09,57.09,0,0,1,4.09,5.49l1.47-1c0-4.07.19-8.15,0-12.2q-2.85-51.88-5.85-103.76c-1.85-32.09-3.69-64.18-5.74-96.26-.27-4.25.69-6.57,4.9-8.32,31.07-12.9,62-26.07,93-39.15,1.34-.56,2.76-1,5.15-1.78V649.86Q317.27,433.13,107.33,216.05Z" transform="translate(-54.73 -130.04)"/></svg>